<?xml version="1.0" encoding="UTF-8"?>
<svg width="100%" height="100%" viewBox="0 0 1100 1100" xmlns="http://www.w3.org/2000/svg" preserveAspectRatio="xMidYMid meet">
  <style>
    .breathe {
      transform-origin: 512px 505px;
      animation: breathe 4s ease-in-out infinite;
    }
    .rotate {
      transform-origin: 512px 505px;
      animation: rotate 20s linear infinite;
    }
    @keyframes rotate {
      from { transform: rotate(0deg); }
      to { transform: rotate(360deg); }
    }
    @keyframes breathe {
      0%, 100% { transform: scale(1); }
      50% { transform: scale(1.05); }
    }
  </style>
  <!-- Statische Translation: Pfad-Zentrum (512,505) → ViewBox-Mitte (550,550) -->
  <g transform="translate(38, 45)">
    <g class="breathe">
      <g class="rotate">
        <path fill="#000000" d="M126.999,173.98C236.408,61.882 395.847,27.092 456.585,13.897C470.78,10.813 521.427,1.896 526.525,1.814C601.911,0.609 665.725,18.389 677.457,21.657C889.681,80.786 1001.005,254.629 1018.758,423.472C1033.885,567.348 999.421,686.139 959.275,754.365C871.894,902.863 717.196,974.389 504.562,1007.894C482.595,1011.355 390.799,1007.087 309.601,977.188C136.713,913.525 71.281,787.356 49.961,744.276C13.745,671.095 2.762,583.983 2.206,548.506C1.815,523.491 0.942,483.543 6.815,439.551C18.794,349.832 44.441,260.861 126.999,173.98L733.958,159.001C733.705,158.775 731.012,156.375 730.791,156.177C617.171,54.209 456.776,63.435 382.448,86.326C132.83,163.2 130.031,473.25 161.184,610.581C207.699,815.63 321.284,887.268 400.643,917.089C433.575,929.464 480.331,937.034 500.483,937.883C536.796,939.412 710.211,956.448 811.161,794.292C914.904,627.651 900.939,310.366 733.958,159.001L126.999,173.98Z"/>
      </g>
    </g>
  </g>
</svg>
